<svg width="39" height="50" viewBox="0 0 39 50" fill="none" xmlns="http://www.w3.org/2000/svg">
<path d="M37.7408 35.3057C37.7408 37.3684 36.2931 39.9038 35.1156 39.9038H34.0434C34.0446 27.2806 34.0446 13.1288 34.0434 10.6169C34.043 10.5425 34.0512 10.4687 34.0675 10.3997C34.0839 10.3307 34.1081 10.2679 34.1387 10.2148C34.1694 10.1617 34.2059 10.1195 34.2462 10.0904C34.2865 10.0614 34.3297 10.0461 34.3735 10.0455H37.4093C37.5916 10.0455 37.741 10.3056 37.741 10.6214V35.3057H37.7408ZM32.7938 44.3334C32.7938 45.639 32.418 47.8262 29.9004 47.8262C25.0215 47.8262 22.0265 41.3287 22.0265 36.6688C22.0265 36.6688 22.0211 21.6011 22.0211 10.6216C22.0206 10.5472 22.0287 10.4732 22.0451 10.4041C22.0615 10.335 22.0857 10.2721 22.1165 10.219C22.1472 10.1659 22.1838 10.1237 22.2242 10.0947C22.2646 10.0657 22.3079 10.0506 22.3518 10.0503H25.3912C25.5737 10.0503 25.7236 10.3087 25.7236 10.6264V34.8365C25.7236 38.8367 27.586 42.0812 29.8819 42.0812H32.7954L32.7938 44.3334ZM37.6397 7.87427H34.1426C33.399 7.87427 32.7935 8.92994 32.7935 10.225V39.9063H29.8798C28.2723 39.9063 26.9694 37.636 26.9694 34.836V10.225C26.9694 8.92686 26.3647 7.87315 25.6197 7.87315H22.121C21.376 7.87315 20.7714 8.92686 20.7703 10.225C20.7684 20.9563 20.7757 36.6693 20.7757 36.6693C20.7762 44.9285 26.0898 50 29.8994 50C32.4547 50 34.0418 47.824 34.0418 44.3185V42.0807H35.1151C36.9976 42.0807 38.9888 38.599 38.9888 35.3057V10.225C38.9907 8.92686 38.3861 7.87315 37.6399 7.87315V7.87427H37.6397ZM16.9711 39.3786C16.9715 39.453 16.9633 39.5268 16.9469 39.5958C16.9305 39.6648 16.9063 39.7275 16.8755 39.7805C16.8448 39.8335 16.8083 39.8757 16.7679 39.9046C16.7276 39.9335 16.6843 39.9485 16.6405 39.9489H13.6011C13.4161 39.9489 13.2679 39.6883 13.2687 39.3742V15.1637C13.2687 11.1639 11.4058 7.91934 9.11036 7.91934H6.19671V5.66663C6.19671 4.36377 6.57252 2.17377 9.09011 2.17377C13.9691 2.17377 16.965 8.67099 16.965 13.3312C16.965 13.3312 16.9704 28.472 16.9704 39.3784H16.9711V39.3786ZM1.57969 39.9539C1.39474 39.9447 1.24685 39.6913 1.24899 39.3769V14.6971C1.24899 12.6342 2.69693 10.0953 3.87395 10.0953H4.94706C4.94541 28.1722 4.94541 37.4221 4.94706 39.3758C4.94789 39.5268 4.91351 39.6722 4.85144 39.7801C4.78938 39.8881 4.70467 39.9499 4.61587 39.952H1.58018L1.57969 39.9539ZM18.2125 13.3315C18.2132 5.07147 12.8993 0 9.09027 0C6.53432 0 4.94706 2.17573 4.94706 5.68147V7.91934H3.87444C1.99124 7.91934 0 11.401 0 14.6946V39.775C0 41.0731 0.604569 42.1268 1.34929 42.1268H4.84578C4.86751 42.1268 4.88612 42.1168 4.90786 42.1168C5.62244 42.0583 6.1949 41.0353 6.1949 39.775V10.0937H9.10905C10.7159 10.0937 12.0194 12.364 12.0194 15.164V39.7753C12.0194 41.0734 12.6241 42.1271 13.3687 42.1271H16.868C17.613 42.1271 18.2173 41.0762 18.2173 39.7753C18.2199 28.8438 18.213 13.3309 18.213 13.3309L18.2125 13.3315Z" fill="white"/>
</svg>
